<?xml version="1.0" standalone="no"?>
<!DOCTYPE svg PUBLIC "-//W3C//DTD SVG 20010904//EN"
 "http://www.w3.org/TR/2001/REC-SVG-20010904/DTD/svg10.dtd">
<svg version="1.0" xmlns="http://www.w3.org/2000/svg"
 width="1280.000000pt" height="1280.000000pt" viewBox="0 0 1280.000000 1280.000000"
 preserveAspectRatio="xMidYMid meet">
<metadata>
Created by potrace 1.15, written by Peter Selinger 2001-2017
</metadata>
<g transform="translate(0.000000,1280.000000) scale(0.100000,-0.100000)"
fill="#2196f3" stroke="none">
<path d="M3643 12504 c-208 -45 -394 -166 -479 -310 -39 -67 -40 -163 -2 -279
39 -121 152 -398 224 -553 19 -41 34 -75 34 -77 0 -4 39 -88 116 -254 25 -52
43 -99 41 -104 -1 -5 -27 22 -57 59 -91 113 -178 151 -310 133 -183 -26 -416
-196 -501 -366 -30 -62 -33 -76 -33 -158 1 -99 22 -168 87 -288 19 -34 58
-107 87 -162 49 -94 184 -320 296 -497 27 -43 77 -123 112 -178 l63 -100 -30
-57 c-15 -32 -48 -105 -72 -163 -48 -119 -81 -172 -135 -220 -59 -51 -98 -65
-284 -100 -276 -53 -405 -118 -510 -257 -87 -114 -128 -240 -171 -518 -36
-235 -63 -296 -209 -465 -85 -98 -151 -198 -171 -255 -7 -22 -17 -44 -21 -50
-9 -11 -11 -259 -2 -268 4 -3 17 -37 29 -74 13 -37 50 -124 82 -193 103 -218
108 -234 107 -335 -1 -80 -5 -103 -43 -205 -61 -164 -73 -214 -74 -307 0 -163
85 -294 278 -423 44 -29 99 -69 121 -87 44 -35 100 -130 129 -218 77 -228 180
-324 404 -377 47 -11 91 -21 97 -23 14 -4 23 -56 79 -430 14 -93 30 -197 35
-230 6 -33 37 -233 70 -445 34 -212 74 -468 91 -570 16 -102 36 -228 45 -280
62 -392 144 -863 185 -1063 67 -331 251 -632 491 -801 233 -164 734 -410 1041
-511 245 -80 548 -147 882 -194 44 -7 103 -16 130 -21 28 -5 86 -13 130 -19
44 -6 114 -16 155 -22 139 -20 614 -23 845 -5 626 49 797 82 1150 221 356 140
625 265 840 390 126 72 161 98 365 261 301 240 432 403 475 586 47 205 126
954 205 1943 16 209 34 436 40 505 18 221 29 371 42 554 7 98 17 184 23 191 5
7 53 29 105 50 315 123 412 204 486 403 37 97 46 108 134 152 96 48 153 102
188 179 24 52 27 71 33 246 8 203 13 240 58 368 15 45 36 123 46 173 16 86 16
96 0 175 -21 105 -62 188 -179 359 -170 246 -184 288 -196 570 -7 166 -13 217
-30 270 -55 165 -148 267 -349 380 -225 127 -262 173 -301 377 -42 219 -52
259 -85 328 -56 118 -170 213 -300 250 -27 8 -105 21 -172 30 -221 28 -264 58
-403 281 -83 135 -193 253 -277 297 -93 50 -188 67 -365 67 -221 0 -246 10
-498 190 -117 84 -236 129 -360 137 -104 6 -177 -9 -338 -73 -151 -59 -219
-67 -289 -31 -27 13 -97 61 -154 106 -181 142 -324 198 -479 188 -112 -8 -198
-36 -349 -113 -232 -120 -286 -126 -595 -63 -118 23 -248 43 -314 47 l-114 7
-60 130 c-86 189 -99 216 -168 360 -34 72 -75 159 -92 195 -127 280 -538 1098
-643 1280 -130 227 -178 289 -254 330 -22 11 -129 41 -141 38 -3 0 -33 -7 -67
-14z m100 -365 l21 -36 -45 -103 c-45 -107 -132 -244 -151 -238 -6 2 -29 49
-50 104 l-40 100 56 85 c83 126 82 125 118 136 41 13 62 1 91 -48z m175 -308
c39 -77 72 -146 72 -154 0 -7 -6 -27 -14 -43 -8 -16 -33 -69 -57 -119 -47 -98
-126 -225 -141 -225 -13 0 -158 315 -158 344 0 7 27 46 60 87 33 41 80 113
103 161 23 48 47 87 52 88 6 0 43 -63 83 -139z m207 -405 c30 -63 55 -119 55
-124 0 -31 -187 -340 -225 -372 -17 -14 -21 -7 -80 123 -33 75 -46 113 -39
122 103 148 141 208 176 280 22 47 45 85 50 85 4 0 33 -51 63 -114z m145 -286
c0 -5 27 -66 61 -135 l61 -127 -27 -62 c-15 -33 -42 -88 -61 -122 -38 -69
-140 -204 -155 -204 -5 0 -13 10 -18 23 -5 12 -36 78 -70 147 -34 69 -61 130
-61 136 0 6 22 40 48 75 64 85 123 174 152 229 37 68 40 72 56 59 8 -6 14 -15
14 -19z m-1002 -353 c2 -10 -8 -43 -22 -73 -14 -30 -26 -57 -26 -60 0 -3 -16
-30 -35 -60 -42 -66 -113 -144 -130 -144 -15 0 -65 112 -65 145 0 34 95 132
171 178 67 40 102 44 107 14z m1249 -172 l57 -116 -40 -81 c-61 -128 -178
-298 -204 -298 -6 0 -130 243 -130 256 0 2 25 31 55 65 63 70 132 171 166 242
13 26 27 47 31 47 5 0 34 -52 65 -115z m-1129 13 c56 -83 56 -81 20 -155 -18
-37 -52 -92 -76 -123 -54 -67 -133 -150 -144 -150 -4 0 -24 32 -43 71 l-36 70
78 83 c56 59 89 105 118 164 22 45 43 81 47 82 4 0 20 -19 36 -42z m186 -306
l49 -87 -44 -84 c-42 -81 -132 -190 -190 -231 l-27 -20 -56 91 c-31 50 -56 96
-56 101 0 6 39 51 86 101 81 85 154 183 154 207 0 5 8 10 18 10 11 0 34 -31
66 -88z m1100 -40 c17 -37 42 -94 58 -126 15 -33 28 -65 28 -71 0 -7 -30 -35
-67 -63 -38 -29 -102 -83 -143 -121 -41 -38 -78 -67 -83 -64 -4 2 -26 41 -48
85 l-40 80 48 57 c82 95 110 135 153 214 23 42 47 77 53 77 7 0 25 -31 41 -68z
m-940 -246 l39 -74 -56 -85 c-57 -86 -189 -213 -208 -201 -14 8 -79 113 -79
127 0 6 27 35 61 62 63 52 138 143 170 207 11 21 23 38 27 38 4 0 25 -33 46
-74z m2813 -52 c30 -10 100 -54 183 -116 293 -219 421 -237 759 -108 211 81
240 74 500 -113 44 -31 110 -73 148 -91 121 -60 159 -67 383 -75 200 -6 206
-7 252 -34 49 -28 103 -96 172 -214 55 -93 149 -207 214 -258 76 -60 184 -104
301 -122 271 -41 288 -48 323 -114 10 -20 27 -82 38 -140 85 -437 145 -523
494 -714 88 -48 149 -104 177 -163 20 -41 24 -68 30 -242 11 -314 45 -413 236
-693 166 -242 170 -263 102 -468 -49 -150 -69 -272 -69 -441 0 -146 2 -142
-97 -190 -111 -53 -180 -137 -234 -285 -12 -32 -32 -72 -45 -89 -26 -36 -118
-86 -259 -142 -55 -22 -186 -82 -290 -134 -308 -153 -491 -230 -635 -269 -28
-7 -134 -13 -285 -14 -262 -2 -298 -7 -385 -63 -59 -37 -244 -82 -570 -137
-177 -30 -242 -31 -429 -4 -191 28 -277 23 -363 -18 -35 -17 -79 -33 -98 -35
-19 -3 -87 -16 -150 -31 -295 -65 -422 -81 -590 -74 -173 7 -458 63 -575 113
-146 62 -209 60 -645 -20 -149 -28 -247 -19 -440 40 -142 43 -271 94 -341 135
-100 60 -166 70 -394 62 -175 -5 -196 -4 -268 16 -97 27 -281 110 -451 203
-144 79 -223 111 -341 138 -196 44 -199 46 -249 177 -42 108 -79 187 -118 248
-35 55 -138 149 -228 207 -134 87 -188 154 -174 216 3 15 31 101 62 192 l56
165 0 130 c1 161 -20 231 -144 485 -122 248 -115 307 60 510 162 188 214 298
255 541 51 309 71 378 132 449 50 58 133 94 274 120 179 32 238 49 334 95 174
84 268 200 365 452 82 215 164 271 430 293 200 17 266 28 388 69 66 21 129 44
141 51 34 18 209 151 280 214 159 138 234 171 396 169 106 -1 137 -6 375 -60
52 -12 121 -17 225 -17 139 -1 156 1 233 27 45 15 150 61 233 102 83 41 163
76 178 78 56 9 91 6 138 -9z m-2682 -190 c11 -22 30 -57 43 -78 32 -54 24 -66
-45 -66 -53 -1 -154 -17 -210 -35 -37 -12 -26 8 32 59 30 26 74 74 97 107 23
33 47 58 53 56 5 -2 19 -21 30 -43z m5965 -5016 c0 -7 -7 -103 -15 -213 -8
-110 -19 -261 -25 -335 -19 -257 -51 -660 -70 -890 -6 -63 -13 -144 -16 -180
-2 -36 -9 -108 -14 -160 -5 -52 -14 -151 -21 -220 -38 -439 -84 -844 -115
-1009 -28 -152 -91 -240 -293 -408 -198 -165 -301 -239 -454 -327 -163 -93
-224 -122 -235 -112 -4 4 -6 510 -5 1124 2 1325 20 1987 65 2337 14 115 20
130 60 152 29 16 62 18 243 20 244 1 304 7 400 35 80 23 293 108 405 162 84
40 90 41 90 24z m-6569 -72 c69 -39 287 -132 369 -157 70 -23 91 -24 320 -24
254 0 278 -4 298 -43 10 -19 35 -133 51 -234 6 -38 15 -96 21 -130 11 -70 74
-587 90 -743 6 -55 15 -140 20 -190 46 -416 200 -2155 200 -2257 0 -25 -5 -38
-13 -38 -20 0 -351 169 -474 242 -74 44 -133 89 -193 148 -97 95 -134 145
-189 258 -55 111 -76 178 -110 348 -32 158 -153 871 -216 1269 -20 127 -45
284 -55 350 -11 66 -31 194 -45 285 -14 91 -30 193 -35 228 -6 34 -14 91 -20
127 -5 36 -14 93 -20 128 -5 34 -21 139 -35 232 -14 94 -28 182 -31 198 -7 35
9 35 67 3z m5165 -305 c-11 -52 -36 -433 -47 -706 -6 -154 -13 -864 -16 -1578
l-5 -1298 -27 -13 c-95 -49 -433 -177 -551 -210 -139 -38 -456 -85 -470 -69
-20 21 -70 2066 -70 2843 0 356 15 834 29 919 12 77 25 84 136 77 50 -2 140
-12 200 -20 196 -28 243 -23 743 73 24 5 45 11 48 14 15 15 35 -7 30 -32z
m-3811 -56 c145 -47 287 -75 373 -75 63 0 164 15 437 65 110 20 202 19 245 -3
29 -14 37 -25 47 -65 72 -292 130 -1414 164 -3155 5 -298 7 -547 3 -553 -8
-14 -103 -2 -374 48 -207 37 -571 136 -639 172 -20 11 -24 38 -41 251 -5 69
-14 179 -20 245 -5 66 -21 255 -35 420 -14 165 -29 350 -35 410 -6 61 -15 162
-20 225 -5 63 -14 160 -19 215 -6 55 -17 172 -26 260 -61 633 -124 1179 -165
1428 -22 131 -23 147 -12 147 4 0 57 -16 117 -35z m2441 -112 c-26 -180 -24
-1565 4 -2513 5 -190 14 -523 20 -740 6 -217 13 -408 15 -425 3 -16 1 -36 -3
-43 -14 -21 -289 -35 -567 -29 -260 6 -402 20 -421 40 -8 8 -15 227 -23 707
-24 1447 -77 2571 -140 2950 -5 30 -5 59 -1 64 5 5 40 1 82 -8 292 -64 519
-60 883 18 164 35 159 36 151 -21z"/>
<path d="M6123 8970 c-27 -30 -33 -46 -33 -82 0 -38 5 -49 40 -83 22 -21 40
-46 40 -55 0 -9 12 -23 28 -30 15 -8 35 -21 45 -29 9 -8 17 -10 17 -6 0 5 12
-2 28 -16 34 -30 67 -49 87 -49 8 0 15 -4 15 -10 0 -5 13 -10 29 -10 17 0 33
-4 36 -10 3 -5 28 -10 56 -10 27 0 49 -4 49 -10 0 -5 7 -10 15 -10 8 0 15 5
15 10 0 6 22 10 49 10 28 0 53 5 56 10 3 6 19 10 36 10 16 0 29 5 29 10 0 6 9
10 20 10 11 0 20 5 20 10 0 6 8 10 18 10 10 0 29 11 42 25 12 13 26 22 30 20
8 -5 100 90 118 122 6 13 12 35 11 50 -1 34 -32 89 -48 85 -6 -1 -14 5 -17 13
-4 8 -14 15 -24 15 -11 0 -22 5 -25 10 -4 6 -62 10 -140 10 -78 0 -136 4 -140
10 -4 6 -93 10 -238 9 l-232 -1 -32 -38z m372 -159 c3 -5 1 -13 -5 -16 -15 -9
-43 3 -35 15 8 13 32 13 40 1z m108 -20 c5 -1 5 -5 2 -11 -7 -12 -65 -14 -65
-2 0 15 12 22 34 17 12 -2 25 -4 29 -4z"/>
<path d="M4719 8824 c-10 -12 -26 -15 -66 -12 -37 3 -57 1 -64 -9 -7 -8 -33
-13 -70 -13 -33 0 -59 -4 -59 -9 0 -6 -19 -11 -42 -13 -28 -2 -42 -7 -40 -16
1 -7 -8 -16 -20 -21 -13 -5 -54 -41 -93 -80 -38 -39 -74 -71 -80 -71 -6 0 -26
-16 -45 -35 -19 -19 -30 -35 -25 -35 5 0 -2 -12 -16 -27 -13 -16 -30 -38 -36
-50 -15 -27 -17 -73 -3 -73 6 0 10 -9 10 -20 0 -13 7 -20 18 -20 10 0 23 -5
29 -11 7 -7 47 -12 98 -12 51 0 91 5 98 12 6 6 28 11 49 11 21 0 38 5 38 10 0
6 14 10 30 10 17 0 30 5 30 10 0 6 13 10 29 10 17 0 33 5 36 10 3 6 15 10 26
10 10 0 19 5 19 10 0 6 13 10 29 10 16 0 34 7 41 15 7 8 16 12 21 9 5 -3 12 2
15 10 3 9 14 16 24 16 9 0 25 9 35 20 10 11 23 20 30 20 7 0 20 9 30 20 10 11
23 20 30 20 6 0 26 16 45 35 19 19 42 35 52 35 11 0 18 7 18 19 0 11 5 23 10
26 6 3 10 37 10 76 0 61 -2 69 -19 69 -10 0 -21 7 -25 15 -3 8 -12 12 -21 9
-8 -4 -17 1 -21 10 -9 23 -136 23 -155 0z m-219 -259 c0 -8 -6 -15 -14 -15
-17 0 -28 14 -19 24 12 12 33 6 33 -9z"/>
<path d="M8360 8500 c0 -5 -13 -10 -29 -10 -16 0 -35 -7 -42 -16 -7 -9 -23
-20 -36 -25 -20 -7 -23 -16 -23 -59 0 -39 3 -50 16 -50 9 0 79 -63 155 -140
77 -77 146 -140 153 -140 8 0 28 -16 45 -35 17 -19 35 -35 40 -35 6 0 26 -9
46 -20 58 -32 104 -25 163 24 41 36 52 73 52 177 0 54 -4 101 -10 104 -5 3
-10 17 -10 30 0 13 -4 27 -10 30 -5 3 -10 14 -10 23 0 16 -57 69 -69 65 -3 -1
-13 4 -21 10 -33 26 -61 37 -95 37 -19 0 -35 5 -35 10 0 6 -32 10 -75 10 -43
0 -75 4 -75 10 0 6 -28 10 -65 10 -37 0 -65 -4 -65 -10z m260 -215 c0 -8 -4
-15 -10 -15 -5 0 -10 7 -10 15 0 8 5 15 10 15 6 0 10 -7 10 -15z m40 -25 c0
-5 -4 -10 -10 -10 -5 0 -10 5 -10 10 0 6 5 10 10 10 6 0 10 -4 10 -10z"/>
<path d="M5115 7550 c-3 -5 -32 -10 -64 -10 -50 0 -61 -4 -84 -28 -21 -22 -27
-38 -27 -73 0 -40 5 -50 48 -92 26 -26 52 -47 58 -47 5 0 25 -16 44 -35 19
-19 39 -35 45 -35 7 0 20 -9 30 -20 10 -11 26 -20 37 -20 10 0 18 -4 18 -10 0
-5 9 -10 20 -10 11 0 20 -4 20 -10 0 -5 13 -10 28 -10 18 0 38 -10 52 -25 20
-22 25 -23 32 -10 5 8 15 15 22 15 7 0 21 9 31 20 10 11 26 20 37 20 10 0 18
7 18 15 0 8 9 30 20 50 11 20 20 44 20 55 0 10 5 22 10 25 6 3 10 39 10 79 0
70 -1 73 -37 106 -21 19 -48 41 -60 48 -28 15 -319 17 -328 2z m233 -198 c2
-7 -6 -12 -17 -12 -21 0 -27 11 -14 24 9 9 26 2 31 -12z"/>
<path d="M7495 7420 c-3 -5 -19 -10 -35 -10 -15 0 -30 -7 -34 -15 -3 -8 -12
-12 -19 -9 -8 3 -17 -2 -20 -10 -4 -9 -16 -16 -27 -16 -11 0 -20 -4 -20 -10 0
-5 -8 -10 -18 -10 -11 0 -27 -9 -37 -20 -10 -11 -23 -20 -30 -20 -6 0 -23 -13
-38 -28 -23 -24 -27 -37 -27 -83 0 -50 3 -58 38 -92 21 -20 46 -37 55 -37 9 0
17 -4 17 -10 0 -5 9 -10 20 -10 11 0 20 -4 20 -10 0 -5 13 -10 29 -10 16 0 34
-6 40 -13 6 -8 23 -12 39 -9 18 2 33 -2 41 -12 9 -11 30 -16 62 -16 26 0 51
-4 54 -10 9 -14 61 -12 88 3 33 18 87 69 82 77 -3 4 2 13 10 20 8 7 15 20 15
30 0 24 -26 73 -50 95 -11 10 -20 23 -20 30 0 7 -9 20 -20 30 -11 10 -20 23
-20 29 0 6 -33 43 -72 83 -69 70 -107 89 -123 63z m-5 -220 c0 -5 -4 -10 -10
-10 -5 0 -10 5 -10 10 0 6 5 10 10 10 6 0 10 -4 10 -10z"/>
<path d="M2924 7375 c-4 -8 -14 -15 -23 -15 -19 0 -231 -213 -251 -252 -7 -16
-17 -28 -22 -28 -4 0 -8 -9 -8 -20 0 -11 -4 -20 -10 -20 -5 0 -10 -23 -10 -50
0 -41 5 -56 25 -75 13 -14 30 -25 38 -25 7 0 18 -5 25 -12 6 -6 29 -11 52 -11
23 0 46 5 52 11 7 7 33 12 59 12 26 0 51 5 54 10 3 6 17 10 30 10 13 0 27 5
30 10 3 6 19 10 36 10 16 0 29 5 29 10 0 6 8 10 18 11 9 0 31 9 47 19 17 11
48 28 71 39 22 11 47 27 54 36 7 8 19 15 28 15 17 0 50 35 63 68 5 13 17 22
29 22 18 0 20 6 20 58 0 54 -3 61 -38 95 -21 20 -46 37 -55 37 -9 0 -17 5 -17
10 0 6 -17 10 -39 10 -22 0 -44 6 -51 15 -10 12 -37 15 -122 15 -87 0 -110 -3
-114 -15z m126 -195 c0 -5 -13 -10 -29 -10 -23 0 -30 -5 -33 -22 -3 -24 -38
-39 -38 -17 0 23 44 58 73 58 15 1 27 -3 27 -9z"/>
<path d="M9618 7245 c-28 -32 -37 -78 -19 -90 12 -7 41 -64 41 -79 0 -7 9 -18
20 -26 11 -8 20 -22 20 -30 0 -9 16 -31 35 -50 19 -19 35 -39 35 -45 0 -7 9
-20 20 -30 11 -10 20 -24 20 -30 0 -7 7 -19 16 -26 9 -7 19 -21 23 -30 3 -10
32 -45 64 -78 58 -60 59 -61 113 -61 52 0 56 2 104 50 28 28 50 57 50 65 0 8
5 15 10 15 6 0 10 7 10 15 0 8 9 30 20 50 13 24 20 54 20 91 0 54 -1 56 -60
114 -34 33 -67 60 -75 60 -8 0 -15 9 -15 20 0 15 -7 20 -25 20 -13 0 -40 9
-60 20 -20 11 -47 20 -60 20 -14 0 -25 5 -25 10 0 6 -9 10 -20 10 -11 0 -23 7
-27 16 -4 10 -13 14 -28 10 -14 -4 -28 0 -35 9 -9 11 -32 15 -79 14 -62 0 -68
-2 -93 -34z m392 -320 c0 -8 -7 -15 -15 -15 -8 0 -15 9 -15 19 0 11 -5 21 -12
23 -7 3 -8 10 -4 17 6 9 13 8 27 -8 10 -11 19 -27 19 -36z"/>
</g>
</svg>
