<?xml version="1.0" standalone="no"?>
<!DOCTYPE svg PUBLIC "-//W3C//DTD SVG 20010904//EN"
 "http://www.w3.org/TR/2001/REC-SVG-20010904/DTD/svg10.dtd">
<svg version="1.0" xmlns="http://www.w3.org/2000/svg"
 width="1280.000000pt" height="844.000000pt" viewBox="0 0 1280.000000 844.000000"
 preserveAspectRatio="xMidYMid meet">
<metadata>
Created by potrace 1.15, written by Peter Selinger 2001-2017
</metadata>
<g transform="translate(0.000000,844.000000) scale(0.100000,-0.100000)"
fill="#ffeb3b" stroke="none">
<path d="M9158 8424 c-28 -14 -58 -60 -58 -87 0 -19 33 -47 56 -47 43 0 95
-22 106 -44 l10 -23 47 25 c25 14 49 31 53 36 12 17 9 94 -3 101 -21 14 -60
-7 -85 -45 -47 -70 -87 -42 -77 53 6 52 -2 57 -49 31z"/>
<path d="M8780 8403 c-8 -3 -41 -21 -73 -41 -65 -38 -65 -47 5 -76 35 -15 37
-15 52 9 9 14 29 31 45 39 36 19 45 41 25 61 -16 16 -28 17 -54 8z"/>
<path d="M8908 8319 c-32 -16 -65 -40 -74 -54 -15 -23 -14 -27 7 -71 26 -51
52 -74 86 -74 26 0 27 3 11 29 -15 24 8 55 80 107 l54 39 -31 8 c-17 4 -37 16
-44 27 -15 26 -21 25 -89 -11z"/>
<path d="M9451 8336 c-9 -10 -8 -16 4 -26 8 -7 15 -25 15 -41 0 -52 52 -72 98
-36 18 14 15 25 -15 73 -23 37 -33 44 -59 44 -17 0 -37 -6 -43 -14z"/>
<path d="M8454 8271 c-105 -38 -135 -78 -96 -130 11 -16 27 -45 36 -65 8 -20
22 -36 31 -36 9 0 62 47 119 103 l103 104 -32 21 c-39 27 -92 28 -161 3z"/>
<path d="M9087 8220 c-44 -35 -70 -86 -63 -124 10 -53 23 -59 125 -51 l91 8 0
52 c0 49 -3 55 -45 94 -50 46 -71 50 -108 21z"/>
<path d="M9357 8199 c-27 -16 -50 -68 -42 -97 20 -81 79 -105 135 -54 40 35
54 106 22 116 -10 4 -27 15 -37 26 -20 22 -50 25 -78 9z"/>
<path d="M8655 8166 c-42 -18 -135 -120 -135 -147 0 -31 81 -109 113 -109 22
0 28 6 36 38 7 25 32 58 76 102 36 35 65 70 65 78 0 15 -75 52 -105 51 -11 0
-33 -6 -50 -13z"/>
<path d="M8114 8096 c-33 -24 -72 -57 -87 -74 l-29 -30 27 -47 c15 -25 38 -53
51 -62 47 -31 67 -21 161 77 48 51 91 98 95 105 5 9 -8 23 -39 44 -67 45 -106
42 -179 -13z"/>
<path d="M8880 8053 c-38 -14 -109 -76 -125 -108 -21 -46 -13 -85 26 -123 34
-33 78 -44 147 -35 l47 5 -3 44 c-3 30 3 57 17 87 28 59 26 81 -10 111 -29 25
-65 31 -99 19z"/>
<path d="M7775 8011 c-16 -4 -40 -13 -53 -20 -29 -16 -82 -88 -82 -113 0 -28
116 -229 150 -260 56 -52 84 -33 115 77 14 49 27 69 70 110 l53 50 -21 30
c-73 105 -148 146 -232 126z"/>
<path d="M9270 8001 c0 -5 -24 -11 -54 -13 -38 -3 -68 -14 -103 -36 -81 -52
-95 -112 -40 -167 24 -24 46 -35 79 -40 99 -15 163 17 174 86 17 113 17 114
-11 147 -26 31 -45 41 -45 23z"/>
<path d="M9460 7977 c-37 -19 -66 -68 -79 -139 -7 -35 -15 -71 -18 -81 -6 -22
42 -44 107 -49 40 -3 46 0 57 24 16 32 33 106 40 170 4 38 1 50 -16 67 -24 24
-55 27 -91 8z"/>
<path d="M8355 7956 c-69 -32 -115 -72 -115 -102 0 -17 20 -45 59 -85 81 -83
98 -80 143 26 9 21 29 38 65 55 l52 26 -48 52 c-55 60 -77 64 -156 28z"/>
<path d="M8558 7820 c-40 -22 -78 -64 -78 -89 0 -37 73 -131 122 -157 34 -18
54 -10 66 25 6 16 22 33 41 40 37 16 85 93 66 107 -7 5 -36 28 -65 52 -59 48
-93 53 -152 22z"/>
<path d="M7360 7808 c-25 -13 -55 -38 -67 -57 -44 -65 -29 -114 92 -301 90
-139 118 -144 174 -28 19 38 43 65 84 97 82 61 86 75 48 147 -17 33 -31 64
-31 70 0 17 -52 62 -92 78 -56 24 -154 21 -208 -6z"/>
<path d="M1697 7785 c-133 -16 -197 -31 -264 -61 -79 -34 -137 -78 -178 -134
-70 -95 -94 -202 -114 -506 -6 -77 -14 -152 -20 -167 -15 -38 -127 -205 -164
-245 -17 -18 -81 -66 -142 -106 -132 -88 -260 -216 -303 -303 -65 -130 -105
-284 -121 -478 -11 -130 -13 -139 -65 -385 -19 -91 -37 -199 -41 -240 l-6 -75
85 87 c106 109 133 149 188 274 86 193 200 349 288 394 21 11 77 24 126 30 68
9 100 18 134 39 25 16 63 34 85 41 26 8 60 33 100 74 106 108 313 290 387 338
127 84 276 135 458 157 52 7 111 20 130 29 41 20 76 71 113 162 14 36 42 101
61 145 63 144 65 247 10 495 -30 133 -72 241 -117 301 -33 43 -36 49 -54 84
-5 11 -27 29 -49 40 -34 18 -61 20 -229 22 -112 1 -235 -4 -298 -12z"/>
<path d="M8055 7766 c-83 -29 -115 -60 -115 -115 0 -29 7 -44 30 -65 17 -15
33 -40 37 -57 7 -36 43 -66 88 -75 46 -8 71 8 80 53 9 54 29 79 85 114 l49 30
-37 50 c-34 46 -99 89 -133 89 -8 0 -45 -11 -84 -24z"/>
<path d="M8885 7712 c-37 -23 -131 -124 -137 -149 -12 -45 37 -95 149 -149 43
-21 63 -26 104 -22 88 9 128 73 129 206 l1 47 19 -24 c26 -30 26 -95 1 -153
-22 -52 -14 -77 35 -109 76 -50 127 -3 172 157 17 60 18 74 6 85 -7 8 -22 24
-33 36 -30 33 -95 48 -123 28 -31 -21 -52 -19 -97 9 -24 15 -47 23 -60 19 -12
-3 -43 4 -70 16 -60 25 -59 25 -96 3z"/>
<path d="M2436 7659 c5 -8 31 -48 58 -89 84 -128 102 -178 142 -390 36 -186
37 -205 37 -400 -1 -291 -36 -530 -114 -771 -34 -105 -188 -431 -240 -505 -18
-26 -56 -104 -85 -173 -184 -444 -188 -456 -273 -726 -96 -306 -112 -398 -136
-755 -9 -129 -24 -327 -35 -440 -20 -212 -26 -318 -60 -950 -23 -425 -63 -934
-86 -1090 -31 -216 -86 -405 -159 -552 -25 -49 -45 -91 -45 -93 0 -3 49 -5
109 -5 75 0 112 4 119 12 8 12 63 192 151 498 16 58 52 193 80 300 28 107 69
251 91 320 22 69 65 224 94 345 54 218 122 479 236 895 32 118 91 339 130 490
133 510 181 627 406 991 63 102 206 259 254 279 91 38 77 -47 -31 -180 -120
-148 -290 -431 -320 -535 -12 -38 -36 -117 -54 -175 -19 -58 -41 -159 -50
-225 -9 -66 -20 -135 -25 -153 -8 -30 -7 -33 8 -27 9 3 30 9 45 12 32 7 52 33
62 83 11 52 81 183 127 235 47 54 69 67 123 74 38 6 40 8 46 51 10 63 20 86
72 156 35 48 58 67 113 95 37 19 76 46 86 60 11 14 24 57 30 95 26 168 41 189
169 227 46 15 94 33 106 42 12 8 31 43 43 79 28 85 61 134 162 242 46 49 104
119 128 155 60 87 123 154 193 201 50 34 63 50 88 104 21 47 49 85 106 143 93
92 112 105 181 121 57 13 63 20 81 95 19 77 70 164 115 197 22 16 64 35 93 44
33 10 58 24 65 37 8 14 13 64 13 137 0 112 -1 119 -54 275 -66 197 -170 464
-223 568 -47 94 -103 158 -163 186 -59 28 -175 28 -265 2 -59 -17 -421 -149
-428 -156 -2 -1 18 -32 43 -68 130 -186 146 -307 85 -618 -45 -225 -130 -761
-130 -816 0 -32 -4 -75 -9 -96 -9 -37 -39 -92 -46 -85 -7 7 84 664 114 818 65
340 63 423 -12 573 -32 64 -60 101 -136 177 -53 53 -124 113 -157 133 -60 36
-187 77 -199 65 -4 -3 3 -55 14 -115 30 -156 50 -294 57 -403 l7 -95 -22 19
c-34 30 -76 128 -120 279 -22 75 -57 190 -77 255 l-36 117 -221 120 c-280 152
-370 206 -431 257 -27 23 -45 35 -40 27z"/>
<path d="M9418 7629 c-23 -13 -23 -36 3 -94 l21 -47 24 23 c29 27 30 54 4 97
-21 35 -26 37 -52 21z"/>
<path d="M8345 7606 c-48 -21 -93 -64 -105 -101 -9 -29 -8 -41 8 -78 28 -63
129 -134 177 -125 17 4 24 -2 33 -25 l11 -29 -73 -33 c-118 -54 -140 -95 -94
-177 21 -36 138 -131 205 -167 42 -22 89 -14 118 20 37 45 65 103 65 137 0 30
-6 36 -125 136 -26 22 -56 58 -66 80 -29 64 -24 105 21 191 l41 76 -37 45
c-21 25 -45 49 -55 55 -25 13 -89 11 -124 -5z"/>
<path d="M7059 7567 c-87 -25 -189 -106 -189 -151 0 -8 16 -27 36 -43 20 -15
63 -66 95 -114 57 -86 92 -120 137 -133 18 -6 22 -4 22 14 0 54 54 112 122
130 21 6 53 23 70 39 l31 27 -42 85 c-23 47 -57 100 -75 118 -30 29 -42 34
-98 37 -34 2 -84 -2 -109 -9z"/>
<path d="M7724 7499 c-38 -26 -87 -63 -107 -81 l-38 -33 31 -65 c42 -87 105
-170 130 -170 11 0 40 5 65 12 34 9 50 9 63 1 16 -10 18 -7 14 18 -9 58 7 97
64 158 l55 60 -16 30 c-39 77 -104 123 -170 120 -11 0 -52 -23 -91 -50z"/>
<path d="M8629 7435 c-93 -68 -99 -101 -34 -197 73 -109 141 -142 214 -106 44
22 107 105 117 154 6 29 1 36 -67 94 -116 100 -157 110 -230 55z"/>
<path d="M9376 7369 c-14 -11 -34 -35 -42 -52 -24 -45 -64 -167 -56 -167 4 0
34 22 67 49 63 52 72 70 74 149 1 48 -5 51 -43 21z"/>
<path d="M6660 7361 c-49 -16 -87 -40 -119 -76 -57 -65 -35 -157 67 -284 64
-79 106 -111 148 -111 33 0 52 18 131 118 10 12 40 30 67 40 56 20 72 38 63
73 -10 38 -148 200 -189 221 -41 22 -130 32 -168 19z"/>
<path d="M8045 7351 c-45 -27 -85 -79 -85 -110 0 -74 116 -181 196 -181 50 0
58 10 67 80 4 36 13 52 46 81 l41 37 -44 40 c-24 22 -58 47 -74 56 -42 21
-110 20 -147 -3z"/>
<path d="M9032 7300 c-44 -32 -102 -121 -102 -157 0 -55 44 -86 125 -86 81 0
122 23 150 85 13 29 26 69 27 88 3 34 1 36 -62 67 -36 18 -72 32 -81 32 -9 1
-35 -12 -57 -29z"/>
<path d="M7381 7258 c-71 -37 -141 -106 -141 -141 0 -28 80 -134 119 -158 16
-9 38 -33 50 -53 45 -72 91 -68 91 8 0 38 6 47 81 122 l82 82 -42 64 c-76 114
-132 132 -240 76z"/>
<path d="M3220 7178 c0 -14 23 -58 32 -58 4 0 8 3 8 8 -1 9 -39 59 -40 50z"/>
<path d="M6346 7109 c-95 -15 -186 -95 -186 -164 0 -37 24 -71 105 -151 33
-32 70 -72 81 -89 l21 -30 62 13 c55 12 66 11 87 -3 23 -15 24 -15 24 12 1 43
34 108 73 138 l35 28 -50 76 c-98 151 -152 187 -252 170z"/>
<path d="M8790 7058 c-52 -26 -73 -62 -74 -126 -1 -37 4 -48 30 -72 39 -34
132 -70 181 -70 31 0 44 8 84 49 56 58 72 110 45 140 -10 11 -44 29 -78 42
-33 12 -65 30 -71 41 -16 25 -63 23 -117 -4z"/>
<path d="M7703 7045 c-54 -27 -153 -123 -153 -149 0 -8 4 -18 10 -21 5 -3 7
-25 3 -50 l-6 -45 64 -30 c75 -35 108 -37 200 -10 62 19 71 25 94 64 14 23 25
53 25 66 0 15 17 38 46 65 l45 42 -33 25 c-99 75 -200 90 -295 43z"/>
<path d="M7040 7016 c-94 -74 -133 -121 -127 -149 9 -34 118 -149 183 -192 30
-20 56 -35 58 -33 1 1 15 29 30 61 15 31 45 79 67 107 21 27 39 55 39 61 0 29
-64 141 -94 164 -50 38 -90 34 -156 -19z"/>
<path d="M9167 7006 c-19 -20 -57 -114 -57 -140 0 -12 55 7 78 27 12 11 27 39
33 61 5 23 12 49 15 59 8 27 -42 22 -69 -7z"/>
<path d="M8144 6971 c-91 -41 -160 -133 -135 -179 16 -30 186 -199 222 -221
98 -60 197 23 214 179 l6 55 -60 67 c-61 66 -143 118 -185 118 -12 0 -40 -9
-62 -19z"/>
<path d="M5980 6855 c-56 -18 -118 -68 -136 -111 -48 -114 49 -357 154 -389
35 -10 120 14 133 37 6 11 17 42 26 71 20 68 39 95 82 115 47 22 55 70 19 111
-13 14 -43 52 -67 84 -29 39 -57 65 -85 78 -48 22 -66 22 -126 4z"/>
<path d="M6689 6818 c-76 -39 -93 -67 -94 -153 0 -52 5 -69 35 -118 59 -98 69
-106 136 -119 33 -6 73 -8 87 -4 28 7 85 76 132 161 l28 50 -47 67 c-49 71
-89 108 -113 108 -8 0 -26 9 -40 20 -35 27 -49 25 -124 -12z"/>
<path d="M8585 6819 c-31 -24 -42 -39 -47 -71 -4 -22 -15 -49 -24 -59 -20 -22
-16 -33 42 -115 48 -67 85 -94 129 -94 89 0 172 98 158 186 -10 68 -14 75 -51
92 -20 9 -57 34 -81 54 -52 45 -73 46 -126 7z"/>
<path d="M9087 6823 c-4 -3 -7 -11 -7 -17 0 -6 5 -5 12 2 6 6 9 14 7 17 -3 3
-9 2 -12 -2z"/>
<path d="M7308 6768 c-39 -23 -68 -70 -68 -110 1 -39 35 -101 78 -140 61 -55
63 -55 261 -32 l53 7 -5 39 c-11 82 -88 189 -166 231 -59 32 -103 34 -153 5z"/>
<path d="M8968 6731 c-24 -19 -46 -69 -62 -143 -8 -33 -6 -34 44 -8 47 24 102
71 131 111 l20 29 -28 11 c-56 21 -78 21 -105 0z"/>
<path d="M7855 6679 c-22 -12 -67 -40 -100 -63 -53 -36 -60 -46 -63 -78 -4
-51 24 -101 109 -192 86 -92 142 -128 203 -128 95 -2 151 67 162 202 l6 75
-59 70 c-105 125 -179 157 -258 114z"/>
<path d="M5625 6596 c-48 -21 -94 -65 -125 -120 -34 -58 -38 -111 -13 -159 25
-50 126 -178 172 -220 74 -67 130 -43 116 49 -5 35 -3 44 9 44 8 0 17 13 21
31 5 21 22 41 56 66 27 19 49 40 49 46 0 18 -70 140 -106 184 -63 78 -123 104
-179 79z"/>
<path d="M6375 6591 c-17 -10 -38 -30 -48 -44 -38 -58 -107 -200 -107 -220 0
-13 21 -42 53 -72 28 -28 68 -70 88 -93 32 -38 40 -42 80 -42 24 0 60 3 80 6
l35 6 0 63 c-1 55 5 73 45 155 l47 93 -47 51 c-64 70 -81 85 -118 102 -43 19
-72 18 -108 -5z"/>
<path d="M8432 6550 c-36 -48 -96 -73 -158 -66 l-51 6 -7 -53 c-18 -152 -18
-171 3 -204 24 -39 98 -83 150 -90 54 -7 113 22 190 93 l63 58 -5 47 c-9 71
-40 124 -91 154 -28 16 -48 37 -55 55 -5 17 -12 30 -14 30 -2 0 -13 -13 -25
-30z"/>
<path d="M7009 6545 c-63 -34 -62 -125 2 -223 46 -71 101 -114 166 -133 43
-12 49 -11 91 12 28 15 59 43 80 74 l34 50 -23 5 c-23 6 -35 22 -64 90 -8 19
-30 55 -48 80 -27 35 -42 46 -73 52 -64 11 -137 8 -165 -7z"/>
<path d="M8785 6439 c-42 -11 -89 -60 -103 -106 -6 -21 -20 -55 -31 -75 l-19
-38 42 0 c48 1 110 21 136 45 28 25 65 142 51 159 -16 19 -41 24 -76 15z"/>
<path d="M7535 6401 c-45 -21 -79 -54 -93 -91 -19 -49 36 -149 103 -189 18
-10 52 -47 75 -81 53 -78 111 -109 170 -91 50 15 87 45 110 92 37 71 22 142
-40 187 -17 13 -36 34 -42 48 -6 13 -38 42 -72 63 -34 22 -69 49 -78 61 -23
26 -78 26 -133 1z"/>
<path d="M6683 6349 c-81 -24 -81 -98 1 -237 30 -50 65 -112 77 -138 31 -60
62 -74 173 -74 101 0 110 8 121 103 4 31 16 68 26 80 l18 24 -99 100 c-57 58
-118 110 -143 122 -53 25 -129 34 -174 20z"/>
<path d="M5959 6272 c-60 -31 -119 -100 -119 -138 0 -17 30 -56 100 -130 55
-59 100 -110 100 -115 0 -27 149 -61 180 -40 12 8 12 12 -3 29 -17 18 -16 22
24 93 23 41 48 81 56 91 13 14 12 21 -8 60 -35 70 -85 124 -141 152 -69 34
-121 34 -189 -2z"/>
<path d="M5261 6268 c-46 -13 -108 -57 -154 -107 -59 -65 -50 -115 36 -214 29
-33 70 -87 92 -121 45 -67 39 -66 153 -45 52 9 80 10 100 3 l27 -10 0 55 c0
56 17 102 66 182 l23 35 -67 81 c-114 138 -177 170 -276 141z"/>
<path d="M10540 6213 c-14 -3 -171 -41 -350 -85 -278 -68 -365 -94 -605 -183
-280 -102 -408 -146 -796 -269 -159 -51 -216 -74 -251 -101 -33 -24 -81 -86
-161 -207 -67 -100 -159 -222 -218 -288 -56 -63 -147 -171 -202 -240 -185
-233 -244 -305 -339 -410 -51 -58 -132 -152 -178 -210 -47 -57 -113 -136 -148
-175 -36 -38 -99 -115 -142 -170 -93 -119 -115 -140 -198 -190 -55 -32 -102
-82 -102 -107 0 -8 217 66 580 197 234 84 254 93 313 136 21 15 65 38 96 49
85 32 205 100 318 182 56 40 148 101 205 136 57 35 173 115 258 179 330 246
485 334 830 473 119 47 217 95 305 149 164 99 546 290 660 331 263 92 536 130
945 130 163 0 221 -4 355 -27 88 -14 196 -27 240 -29 59 -1 98 -9 145 -28 35
-14 64 -26 66 -26 1 0 -4 21 -12 48 -22 71 -32 119 -43 208 -5 44 -20 106 -31
138 -30 79 -113 166 -198 208 l-67 33 -180 0 c-199 -1 -226 -6 -357 -69 -92
-45 -139 -51 -302 -37 -203 17 -329 -3 -646 -104 -96 -30 -230 -69 -297 -85
-67 -17 -164 -48 -215 -69 -51 -21 -131 -51 -176 -66 -75 -24 -112 -45 -245
-138 -21 -14 -64 -36 -95 -47 -31 -12 -66 -29 -76 -38 -18 -16 -19 -16 -13 1
4 10 7 20 7 23 0 2 27 17 60 34 34 17 109 63 168 103 87 59 144 88 302 151
107 43 229 95 270 116 128 64 432 144 610 161 58 5 143 16 190 24 47 8 109 15
138 15 28 0 52 2 52 5 0 17 -77 71 -155 110 -111 55 -218 75 -315 58z"/>
<path d="M8140 6191 c0 -10 -7 -22 -16 -25 -25 -10 -98 -7 -133 5 -18 6 -35 8
-39 5 -3 -4 2 -36 11 -72 17 -60 17 -68 2 -90 -20 -32 -12 -47 67 -118 98 -89
131 -88 226 9 58 59 62 67 62 109 0 54 -27 89 -119 154 -52 36 -61 40 -61 23z"/>
<path d="M7265 6136 c-55 -17 -80 -32 -125 -72 -45 -41 -59 -84 -37 -118 10
-15 12 -27 6 -33 -6 -6 13 -27 53 -59 96 -75 139 -115 164 -156 15 -24 34 -40
52 -43 15 -3 43 -11 64 -17 51 -15 78 -5 138 49 53 47 89 108 90 150 0 12 5
25 11 29 17 10 3 -85 -23 -154 -15 -40 -18 -57 -9 -60 6 -2 18 -16 26 -32 9
-17 45 -46 93 -74 85 -50 130 -58 181 -32 59 31 141 146 141 199 0 13 -19 46
-44 75 -25 29 -54 66 -66 82 -25 35 -72 62 -93 54 -8 -3 -24 -18 -36 -34 -18
-26 -28 -30 -67 -30 -78 0 -143 44 -220 146 -97 131 -180 167 -299 130z"/>
<path d="M8511 6122 c-77 -38 -121 -82 -121 -120 0 -16 -9 -49 -20 -73 -25
-55 -25 -65 -1 -72 21 -5 217 55 235 73 6 6 16 36 22 68 11 49 10 62 -4 91
-29 59 -49 65 -111 33z"/>
<path d="M6390 6039 c-128 -70 -157 -137 -93 -213 50 -60 202 -194 243 -214
50 -24 85 -18 142 29 21 16 46 29 56 27 12 -2 21 10 34 47 23 68 22 88 -8 156
-20 43 -32 59 -47 59 -11 0 -44 26 -77 60 -31 32 -69 64 -84 70 -50 19 -108
12 -166 -21z"/>
<path d="M5728 6020 c-102 -19 -170 -129 -138 -225 7 -20 33 -62 59 -93 66
-80 74 -95 59 -126 -6 -15 -9 -28 -7 -31 3 -2 41 7 84 21 54 17 94 24 123 21
l42 -5 0 42 c0 56 15 103 48 156 l29 45 -66 73 c-93 104 -155 137 -233 122z"/>
<path d="M4859 5946 c-115 -68 -169 -140 -169 -228 0 -35 7 -47 64 -106 74
-77 116 -137 116 -164 0 -18 2 -17 30 3 19 15 49 24 87 27 64 5 83 15 83 43 0
10 26 68 57 129 l58 111 -25 46 c-30 56 -113 149 -151 168 -44 23 -69 18 -150
-29z"/>
<path d="M6982 5829 c-53 -27 -119 -100 -132 -148 -25 -94 69 -221 214 -287
46 -21 68 -25 107 -22 93 9 181 97 183 183 1 52 -22 81 -99 125 -27 16 -81 61
-120 99 -41 42 -78 71 -90 71 -11 0 -39 -10 -63 -21z"/>
<path d="M8228 5809 c-29 -11 -61 -67 -73 -129 -11 -55 -34 -90 -66 -104 l-29
-12 30 -29 c27 -26 32 -28 67 -17 21 6 61 14 88 18 28 3 58 10 67 15 26 14
108 127 108 149 0 31 -64 95 -108 108 -45 14 -48 14 -84 1z"/>
<path d="M6085 5771 c-84 -43 -109 -139 -63 -238 47 -101 193 -223 266 -223
61 0 110 38 169 130 19 30 44 65 56 78 13 14 16 22 7 22 -7 0 -56 42 -109 93
-148 141 -242 181 -326 138z"/>
<path d="M5305 5696 c-93 -43 -175 -152 -175 -230 0 -28 7 -40 35 -62 23 -17
39 -40 46 -67 20 -74 117 -136 196 -124 46 6 136 40 181 67 28 17 32 25 32 62
0 26 8 55 20 73 29 43 25 68 -21 140 -46 73 -95 119 -153 146 -55 25 -101 24
-161 -5z"/>
<path d="M7560 5580 c-8 -5 -50 -10 -92 -10 -71 0 -94 -9 -68 -25 6 -3 10 -26
10 -51 0 -35 -5 -49 -25 -66 -47 -41 -28 -84 63 -147 31 -21 70 -53 86 -70 17
-17 36 -31 44 -31 8 0 50 19 93 41 83 43 119 79 163 159 l26 48 -53 17 c-70
23 -109 48 -155 101 -39 44 -63 53 -92 34z"/>
<path d="M4543 5560 c-47 -11 -118 -55 -138 -86 -25 -38 -30 -102 -12 -144 8
-19 34 -60 59 -90 25 -30 57 -74 71 -97 32 -51 59 -60 126 -42 l49 12 -2 61
c-1 50 4 69 26 106 15 25 40 54 57 65 17 11 31 25 31 30 0 22 -122 176 -146
185 -29 11 -75 11 -121 0z"/>
<path d="M6680 5531 c-34 -11 -100 -46 -127 -68 -35 -30 -73 -94 -73 -126 0
-52 47 -124 104 -156 28 -16 79 -58 113 -94 108 -112 173 -116 281 -16 83 77
91 91 92 155 l0 51 -115 117 c-64 65 -131 124 -150 132 -37 15 -85 17 -125 5z"/>
<path d="M5848 5506 c-48 -17 -147 -102 -154 -133 -22 -88 80 -264 190 -327
70 -41 122 -50 172 -31 36 14 55 32 105 101 l61 85 -39 52 c-22 29 -52 70 -68
92 -93 132 -187 189 -267 161z"/>
<path d="M8000 5495 c0 -9 -15 -22 -34 -30 -32 -14 -50 -44 -80 -137 -3 -10
-12 -18 -20 -18 -21 0 -67 -60 -64 -83 7 -46 158 -48 245 -3 57 29 87 58 108
108 26 63 30 56 -127 161 -25 17 -28 17 -28 2z"/>
<path d="M12265 5374 c37 -48 162 -168 232 -222 54 -43 133 -160 168 -252 15
-39 37 -83 50 -98 l22 -26 27 41 c45 67 45 127 2 260 -60 185 -128 239 -385
308 -73 19 -137 35 -142 35 -5 0 7 -21 26 -46z"/>
<path d="M4912 5375 c-84 -26 -152 -99 -152 -163 0 -63 21 -96 162 -251 17
-18 49 -42 72 -52 50 -23 129 -25 146 -4 7 8 25 15 41 15 24 0 32 9 65 70 20
39 52 84 71 100 l34 30 -38 15 c-62 25 -65 28 -135 121 -97 128 -155 154 -266
119z"/>
<path d="M7245 5300 c-41 -21 -68 -29 -86 -25 -25 6 -26 4 -32 -55 -4 -34 -12
-71 -18 -83 -7 -12 -92 -106 -191 -208 -98 -103 -178 -194 -178 -202 0 -28
252 -212 318 -232 18 -5 38 6 97 50 65 49 79 65 108 127 31 66 35 70 46 51 18
-35 13 -77 -14 -113 -30 -41 -33 -85 -6 -100 24 -12 63 -13 93 -1 13 5 52 15
88 22 55 11 70 19 106 55 57 59 71 96 50 129 -21 32 -113 85 -148 85 -14 0
-41 -12 -58 -26 -28 -24 -37 -26 -93 -22 -74 6 -140 36 -202 90 -49 43 -75 84
-75 117 0 30 20 18 65 -39 48 -61 135 -110 194 -110 50 0 86 29 176 146 l64
83 -25 48 c-24 50 -170 233 -184 233 -5 0 -14 2 -22 5 -7 2 -40 -9 -73 -25z"/>
<path d="M4230 5238 c-30 -11 -67 -29 -81 -39 -30 -21 -59 -85 -59 -129 0 -77
90 -221 172 -275 55 -36 95 -41 136 -15 33 20 34 22 27 68 -6 43 -4 50 20 72
15 14 39 51 54 82 l27 56 -90 96 c-105 110 -121 117 -206 84z"/>
<path d="M6367 5246 c-74 -27 -149 -101 -161 -162 -5 -22 2 -60 24 -127 l31
-96 87 -43 c48 -23 103 -55 123 -70 65 -50 153 -31 243 52 58 54 74 104 51
155 -18 36 -51 65 -127 109 -31 18 -63 50 -91 89 -43 62 -97 107 -126 107 -9
-1 -33 -7 -54 -14z"/>
<path d="M10310 5216 c-19 -7 -64 -31 -100 -53 -87 -52 -209 -103 -355 -148
-200 -61 -235 -74 -361 -140 -67 -35 -168 -83 -225 -105 -256 -102 -402 -190
-806 -487 -556 -408 -865 -585 -1908 -1091 -181 -88 -746 -368 -1255 -623
-509 -254 -954 -477 -990 -494 -36 -18 -92 -54 -125 -79 -60 -48 -121 -79
-210 -112 -27 -9 -106 -56 -175 -103 -221 -151 -262 -177 -438 -275 -209 -116
-266 -154 -402 -266 -58 -47 -129 -103 -157 -125 -29 -21 -51 -40 -49 -42 4
-5 156 57 270 111 55 25 174 89 266 141 91 52 204 110 250 129 47 19 137 62
200 95 71 36 157 71 225 91 189 54 254 79 465 180 231 111 351 155 525 194 66
15 179 47 250 71 198 67 555 122 851 130 146 4 181 8 205 22 15 10 74 49 131
87 151 101 348 222 768 476 206 124 413 250 458 279 46 29 150 91 230 138 191
112 239 144 364 250 104 89 172 140 328 248 53 37 168 142 305 277 122 120
224 218 228 218 14 0 7 -55 -13 -95 -20 -41 -219 -244 -350 -356 -101 -87
-284 -221 -530 -391 -124 -85 -308 -212 -410 -283 -286 -199 -641 -425 -1109
-707 -283 -171 -272 -162 -188 -154 164 13 347 92 727 311 113 65 273 157 356
205 190 108 297 185 604 430 135 108 324 258 420 334 148 116 237 200 570 534
436 438 581 576 775 737 154 127 189 160 347 328 99 105 116 127 97 126 -13 0
-40 -6 -59 -13z"/>
<path d="M5488 5150 c-75 -40 -161 -179 -162 -262 -1 -51 23 -87 79 -115 80
-41 140 -90 172 -140 36 -57 48 -61 92 -38 41 21 77 68 117 151 24 51 46 81
69 97 l34 23 -46 70 c-63 94 -151 179 -215 209 -63 30 -91 31 -140 5z"/>
<path d="M7660 5151 c-38 -16 -45 -23 -48 -50 -2 -19 -9 -31 -17 -31 -20 0
-43 -38 -71 -116 -35 -95 -36 -94 44 -88 106 9 167 23 231 55 53 26 111 82
111 107 0 9 -72 72 -126 109 -44 31 -73 35 -124 14z"/>
<path d="M4648 5040 c-57 -10 -113 -53 -138 -105 -19 -39 -21 -56 -16 -102 7
-56 57 -178 96 -234 46 -64 -14 -47 -67 19 -53 66 -72 79 -124 92 -85 21 -175
-24 -214 -106 -14 -30 -15 -43 -5 -87 25 -112 156 -327 198 -327 10 0 41 18
69 39 38 28 67 41 103 46 61 8 73 24 90 112 17 87 51 123 165 178 50 24 97 51
104 59 7 8 14 31 17 53 3 21 13 57 21 81 16 42 15 43 -9 70 -14 15 -40 50 -58
77 -78 118 -137 153 -232 135z"/>
<path d="M3932 4929 c-47 -23 -97 -79 -133 -149 -35 -66 -33 -166 4 -237 15
-29 36 -57 48 -63 11 -7 38 -28 60 -47 42 -38 48 -38 124 -9 22 8 55 15 74 16
27 0 32 3 26 18 -27 68 -12 139 45 211 22 28 40 53 40 57 0 8 -69 121 -98 161
-26 36 -77 63 -119 63 -15 0 -47 -10 -71 -21z"/>
<path d="M6020 4898 c-57 -29 -193 -158 -215 -205 -17 -36 -17 -38 5 -80 23
-44 63 -80 163 -147 65 -44 117 -99 117 -123 0 -9 11 -29 25 -43 33 -34 35
-78 10 -182 -18 -75 -18 -78 0 -98 10 -11 33 -22 51 -26 20 -4 45 -19 63 -39
38 -44 82 -65 146 -72 93 -10 173 31 226 115 40 63 39 104 -3 133 -18 12 -58
47 -89 78 -30 31 -86 82 -123 115 l-67 59 -61 -32 c-57 -29 -118 -41 -118 -23
0 23 98 94 154 112 77 25 146 109 146 178 0 32 -32 72 -59 72 -21 0 -119 94
-171 162 -19 26 -45 51 -58 57 -37 17 -93 13 -142 -11z"/>
<path d="M5147 4830 c-116 -35 -170 -179 -111 -297 34 -69 90 -118 190 -164
93 -44 132 -54 169 -45 28 7 34 18 60 113 12 41 24 63 36 66 11 3 20 18 24 41
7 34 4 40 -64 112 -136 146 -227 197 -304 174z"/>
<path d="M6589 4631 c-73 -46 -149 -161 -149 -227 0 -41 18 -60 139 -154 77
-60 110 -73 156 -64 77 15 146 78 218 198 l35 58 17 -26 c19 -28 18 -36 -16
-114 -34 -78 -23 -85 133 -90 116 -4 125 -3 157 20 19 12 49 50 67 83 l33 59
-30 13 c-17 7 -48 26 -69 43 -50 40 -85 45 -162 26 -94 -24 -142 -6 -259 97
-111 97 -128 107 -179 107 -33 0 -58 -8 -91 -29z"/>
<path d="M4820 4508 c-29 -24 -66 -53 -83 -65 -66 -48 -73 -103 -24 -180 17
-29 44 -74 59 -102 24 -45 36 -54 119 -95 141 -71 220 -63 249 26 9 25 33 64
53 87 20 23 37 51 37 63 0 27 -176 200 -232 229 -20 10 -43 31 -50 46 -22 46
-64 43 -128 -9z"/>
<path d="M5581 4517 c-61 -31 -81 -119 -47 -202 19 -44 255 -283 306 -310 67
-35 155 -17 190 39 10 18 27 74 36 126 15 91 15 94 -4 109 -11 9 -32 35 -46
59 -14 23 -30 42 -34 42 -4 0 -16 13 -27 29 -27 41 -76 66 -186 96 -104 28
-152 31 -188 12z"/>
<path d="M3564 4489 c-91 -58 -134 -116 -134 -181 1 -55 54 -151 141 -251 4
-5 18 -2 31 7 13 8 56 22 96 31 110 23 132 40 132 105 0 17 11 53 25 80 40 79
32 111 -53 193 -44 44 -52 48 -72 37 -16 -8 -30 -9 -52 -1 -46 16 -59 14 -114
-20z"/>
<path d="M4015 4329 c-121 -51 -143 -99 -105 -233 30 -103 75 -202 103 -221
32 -22 65 -18 132 18 41 22 62 40 67 57 4 14 12 44 17 67 7 24 30 62 57 92 31
35 41 51 30 51 -10 0 -29 25 -49 68 -28 58 -40 72 -87 100 -30 17 -63 32 -75
31 -11 0 -51 -14 -90 -30z"/>
<path d="M5365 4233 c-89 -48 -165 -137 -165 -193 0 -35 33 -99 84 -164 52
-65 235 -215 271 -222 68 -12 165 58 215 155 24 47 63 152 58 154 -1 1 -25 13
-52 25 -50 23 -157 112 -230 190 -68 73 -119 88 -181 55z"/>
<path d="M4535 4191 c-46 -21 -115 -92 -162 -166 -50 -80 -48 -97 17 -172 123
-141 186 -183 276 -183 42 0 51 4 88 44 47 49 115 137 134 173 23 41 0 83 -88
163 -54 48 -82 82 -88 103 -15 57 -98 75 -177 38z"/>
<path d="M6850 4168 c-19 -5 -46 -20 -60 -33 -14 -13 -37 -27 -52 -30 -29 -8
-37 -20 -15 -28 7 -2 -8 -28 -41 -68 -105 -128 -77 -166 114 -157 105 6 163
28 231 91 30 28 43 49 48 77 4 22 11 43 17 46 12 7 -23 46 -76 85 -42 31 -97
37 -166 17z"/>
<path d="M3325 4147 c-11 -8 -33 -17 -48 -21 -64 -15 -127 -122 -126 -213 0
-65 55 -230 81 -247 12 -7 34 1 89 34 83 50 87 54 110 128 9 29 33 70 53 92
20 22 36 49 36 59 0 11 -18 41 -40 66 -22 25 -40 54 -40 63 0 10 -13 21 -32
28 -18 6 -40 14 -48 18 -8 3 -24 0 -35 -7z"/>
<path d="M3705 4039 c-86 -30 -135 -67 -172 -129 -26 -43 -33 -65 -33 -107 0
-67 19 -105 104 -205 35 -43 69 -85 74 -94 7 -13 19 -8 76 35 37 29 90 63 116
76 37 19 51 33 60 59 6 18 20 42 31 52 44 39 43 48 -16 167 -30 63 -66 124
-79 136 -34 32 -89 35 -161 10z"/>
<path d="M6017 3960 c-16 -12 -40 -20 -66 -20 -41 0 -71 -25 -71 -60 0 -8 -16
-37 -35 -64 -19 -27 -35 -56 -35 -64 0 -26 57 -71 111 -86 30 -9 76 -32 103
-51 49 -35 98 -45 112 -24 4 7 22 9 46 6 32 -4 45 -1 66 18 15 13 42 36 61 51
30 25 56 69 75 130 6 19 2 22 -39 28 -31 5 -69 24 -121 59 -154 106 -165 110
-207 77z"/>
<path d="M5040 3879 c-77 -23 -160 -120 -160 -186 0 -63 32 -102 179 -218 105
-84 161 -115 204 -115 48 0 71 12 125 64 51 48 72 84 72 122 0 15 7 35 16 45
14 15 13 20 -14 51 -17 18 -59 51 -95 72 -36 21 -93 67 -127 102 -58 60 -65
64 -113 69 -29 2 -68 0 -87 -6z"/>
<path d="M4164 3831 c-107 -50 -164 -118 -164 -193 0 -46 41 -129 90 -182 l42
-45 -104 53 c-123 64 -154 72 -201 53 -73 -31 -157 -147 -157 -218 0 -41 32
-76 121 -132 31 -20 79 -63 108 -96 60 -69 82 -75 129 -36 17 14 45 31 64 37
18 6 54 29 80 50 51 42 117 138 95 138 -15 0 -63 49 -96 98 l-22 32 49 -31
c65 -40 150 -49 202 -21 19 10 66 59 103 108 38 49 80 96 94 105 l25 16 -43
34 c-24 19 -86 76 -138 128 -146 144 -170 153 -277 102z"/>
<path d="M6483 3805 c-11 -8 -41 -48 -67 -89 -25 -40 -54 -77 -64 -81 -12 -6
0 -12 43 -21 79 -17 155 -16 235 4 56 15 69 23 97 60 39 51 41 62 12 62 -12 0
-54 18 -94 40 -78 43 -126 50 -162 25z"/>
<path d="M2974 3731 c-85 -39 -143 -144 -131 -236 18 -125 112 -199 161 -126
11 16 39 38 63 50 58 28 81 78 83 181 3 105 2 108 -20 130 -26 26 -100 26
-156 1z"/>
<path d="M3343 3659 c-53 -26 -139 -119 -151 -163 -20 -71 20 -147 98 -190 69
-37 81 -68 64 -155 l-7 -31 -45 62 c-86 121 -141 165 -189 153 -34 -8 -169
-109 -184 -136 -29 -55 15 -177 99 -271 52 -57 72 -60 129 -18 23 17 61 34 85
38 43 7 43 8 98 112 46 88 64 112 115 152 42 35 68 48 91 48 37 0 52 15 59 61
3 19 13 59 22 90 l16 57 -67 83 c-106 132 -146 151 -233 108z"/>
<path d="M5744 3646 c-11 -8 -38 -17 -60 -21 -78 -12 -139 -28 -151 -38 -7 -5
-13 -20 -13 -32 0 -12 -18 -49 -40 -81 -71 -105 -54 -142 107 -230 68 -37 98
-48 147 -51 61 -5 62 -5 126 43 76 58 142 151 160 224 l12 52 -43 44 c-24 24
-48 44 -55 44 -6 0 -38 13 -70 30 -66 33 -90 37 -120 16z"/>
<path d="M4759 3582 c-15 -9 -47 -42 -72 -73 -26 -32 -70 -72 -99 -89 -62 -39
-77 -56 -78 -91 0 -41 33 -74 141 -140 54 -33 117 -82 139 -107 39 -43 44 -46
100 -50 33 -2 73 1 88 7 15 6 61 48 102 93 73 80 75 83 73 130 -4 88 -48 150
-171 241 -129 97 -174 112 -223 79z"/>
<path d="M6225 3529 c-27 -16 -67 -32 -87 -35 -30 -5 -38 -11 -38 -28 0 -23
-44 -99 -86 -149 -32 -38 -32 -73 0 -81 35 -9 123 10 181 39 28 14 91 59 140
101 50 42 100 81 113 87 12 5 22 13 22 17 0 3 -28 23 -62 43 -77 46 -115 47
-183 6z"/>
<path d="M2730 3413 c-46 -17 -101 -98 -144 -214 -17 -45 -17 -48 3 -86 11
-22 34 -52 52 -67 l31 -27 32 20 c17 11 54 32 81 47 77 41 95 61 95 109 0 22
5 46 11 52 15 15 -34 104 -78 144 -33 28 -52 33 -83 22z"/>
<path d="M5282 3290 c-35 -17 -70 -30 -78 -30 -12 0 -12 -4 -2 -20 11 -18 9
-29 -19 -80 -18 -32 -33 -65 -33 -73 0 -23 148 -157 196 -179 59 -26 134 -26
176 0 18 12 57 45 86 75 51 52 53 56 50 103 l-3 49 -93 45 c-71 34 -98 53
-109 75 -20 40 -52 65 -83 65 -14 0 -54 -14 -88 -30z"/>
<path d="M4405 3260 c-31 -6 -53 -22 -103 -75 -55 -58 -63 -71 -57 -94 3 -14
10 -45 14 -69 4 -24 17 -52 27 -61 81 -77 215 -186 241 -198 90 -37 195 2 234
87 45 100 62 118 74 79 5 -14 -1 -39 -16 -71 -28 -61 -25 -67 67 -131 55 -38
75 -47 99 -44 55 9 205 66 286 109 l80 42 -72 34 c-62 30 -73 39 -90 77 -20
46 -61 85 -87 85 -8 0 -43 -16 -78 -35 -48 -27 -74 -35 -112 -35 -64 0 -132
29 -163 70 -46 60 -99 103 -166 135 -17 8 -41 31 -53 50 -20 32 -57 57 -78 54
-4 -1 -25 -5 -47 -9z"/>
<path d="M3531 3183 c-86 -43 -181 -162 -181 -229 0 -35 12 -55 91 -155 100
-126 192 -167 274 -122 17 9 52 28 79 42 45 24 51 32 69 85 14 41 33 72 61
100 40 39 41 42 24 59 -10 9 -26 17 -36 17 -28 0 -92 50 -147 114 -83 98 -158
126 -234 89z"/>
<path d="M5900 3180 c-14 -4 -52 -22 -85 -40 -60 -31 -94 -72 -95 -115 0 -16
6 -13 38 17 23 23 51 39 75 43 27 5 47 18 69 46 17 21 38 40 47 41 13 3 12 5
-4 9 -11 3 -31 2 -45 -1z"/>
<path d="M2490 3011 c-85 -89 -122 -231 -72 -271 26 -21 38 -19 99 19 44 27
58 51 69 116 4 22 13 47 21 57 13 14 12 20 -2 50 -23 44 -45 68 -63 68 -8 0
-32 -18 -52 -39z"/>
<path d="M2807 3015 c-47 -24 -80 -54 -124 -113 -69 -92 -67 -117 19 -219 24
-28 58 -70 76 -92 18 -23 40 -41 48 -41 9 0 28 14 42 30 15 17 36 30 49 30 25
0 53 34 53 65 0 23 51 115 74 134 19 16 21 31 4 31 -7 0 -20 13 -30 29 -9 17
-34 41 -55 54 -21 14 -49 43 -63 65 -27 45 -47 51 -93 27z"/>
<path d="M4065 2939 c-89 -51 -121 -82 -141 -135 -24 -64 -6 -133 51 -188 71
-68 76 -73 104 -102 15 -16 56 -51 91 -79 58 -45 69 -50 116 -50 42 0 60 6 96
31 56 41 133 136 154 191 23 59 10 81 -79 129 -74 41 -207 173 -207 206 0 23
-30 38 -77 38 -27 0 -59 -12 -108 -41z"/>
<path d="M3210 2873 c-82 -54 -190 -188 -190 -235 0 -49 28 -95 99 -160 85
-79 147 -118 186 -118 18 0 52 13 81 32 35 23 60 32 90 32 41 -1 42 0 73 63
45 92 43 109 -22 138 -97 45 -197 149 -197 207 0 26 -3 28 -40 28 -24 0 -42 6
-47 15 -8 13 -12 13 -33 -2z"/>
<path d="M4700 2715 c-19 -8 -47 -16 -62 -19 -33 -8 -57 -44 -37 -57 11 -6 6
-16 -18 -41 -41 -42 -55 -80 -43 -113 15 -39 54 -42 119 -10 61 29 169 99 215
138 l29 25 -38 34 c-21 18 -45 38 -54 45 -20 16 -66 15 -111 -2z"/>
<path d="M2494 2664 c-137 -92 -158 -171 -73 -280 78 -98 90 -118 87 -139 -5
-31 -39 -25 -63 12 -11 18 -33 53 -49 78 -16 26 -40 52 -53 58 -37 17 -57 -15
-84 -129 -22 -97 -22 -162 1 -189 25 -30 81 -18 164 34 103 66 116 78 116 116
0 36 41 81 105 113 65 33 97 74 103 131 6 62 -15 99 -97 170 -69 60 -98 64
-157 25z"/>
<path d="M3759 2628 c-82 -41 -179 -134 -179 -170 0 -15 5 -30 10 -33 6 -4 7
-13 1 -24 -10 -18 11 -46 141 -195 104 -119 198 -127 330 -28 68 51 93 79 113
124 20 49 19 58 -4 58 -11 0 -41 24 -68 55 -26 30 -56 55 -66 55 -34 0 -57 20
-108 96 -41 61 -77 94 -103 94 -2 0 -32 -14 -67 -32z"/>
<path d="M1563 2520 c-117 -180 -190 -401 -303 -910 -75 -343 -101 -417 -221
-647 l-80 -153 29 0 c16 0 45 -6 63 -14 39 -16 168 -30 191 -21 31 12 137 154
206 276 106 187 128 273 143 559 11 229 24 905 18 950 -4 21 -9 17 -46 -40z"/>
<path d="M2866 2499 c-34 -27 -56 -70 -56 -109 0 -71 110 -228 200 -285 86
-54 140 -55 227 -5 46 26 51 33 42 48 -9 15 -6 26 15 59 36 55 32 84 -14 95
-52 13 -80 28 -132 73 -166 143 -225 169 -282 124z"/>
<path d="M4471 2409 c-45 -37 -105 -65 -161 -74 -63 -10 -77 -20 -85 -57 -4
-18 -16 -43 -28 -55 -57 -63 72 -24 180 54 43 31 97 70 121 86 42 29 43 30 25
51 -10 11 -18 22 -18 23 0 0 -15 -12 -34 -28z"/>
<path d="M3409 2291 c-37 -39 -49 -59 -54 -94 -7 -48 0 -69 46 -127 15 -19 33
-54 39 -78 9 -35 20 -49 58 -73 93 -59 165 -61 271 -8 54 27 141 107 141 130
0 5 -11 9 -25 9 -38 0 -126 37 -166 69 -19 16 -56 66 -82 110 -51 88 -81 111
-143 111 -32 0 -45 -8 -85 -49z"/>
<path d="M2675 2284 c-67 -34 -133 -166 -95 -189 6 -3 10 -19 10 -34 0 -35 13
-50 76 -89 28 -18 72 -58 97 -90 24 -32 56 -64 71 -71 23 -13 31 -12 78 11 29
15 70 31 90 38 20 6 41 16 46 23 15 20 42 112 33 115 -50 18 -121 75 -156 127
-24 35 -50 61 -62 63 -13 2 -27 18 -39 43 -10 22 -27 47 -38 55 -27 18 -73 18
-111 -2z"/>
<path d="M5960 2060 c-41 -11 -97 -20 -124 -20 -48 0 -111 -10 -306 -50 -52
-10 -135 -26 -185 -35 -138 -25 -244 -60 -441 -145 -100 -43 -249 -104 -330
-136 -82 -31 -254 -103 -382 -161 -128 -57 -380 -165 -560 -239 -375 -155
-507 -213 -717 -314 -82 -40 -224 -101 -315 -135 -91 -35 -214 -84 -275 -110
-139 -59 -224 -81 -350 -89 -54 -4 -115 -14 -135 -22 -19 -9 -78 -19 -130 -24
-52 -4 -127 -14 -167 -21 -65 -12 -86 -11 -212 9 -84 13 -165 32 -203 47 -38
16 -116 34 -198 47 -218 32 -368 15 -655 -77 -146 -46 -184 -67 -240 -133
l-34 -39 72 -14 c56 -11 159 -13 460 -11 238 2 411 -1 445 -8 30 -5 97 -25
148 -44 203 -77 364 -83 704 -27 166 28 194 36 277 75 64 31 115 48 170 56 43
7 109 25 148 40 38 15 100 37 137 48 37 12 129 43 205 70 76 28 172 57 213 67
162 37 199 47 307 86 102 37 450 131 583 158 30 6 106 18 169 26 63 8 155 28
205 45 59 19 208 49 421 85 481 81 666 114 790 140 61 12 160 25 221 29 62 3
255 26 430 52 301 44 332 47 539 48 121 1 330 -7 465 -16 244 -16 246 -17 415
-67 103 -31 225 -59 310 -72 77 -11 327 -52 555 -89 363 -61 741 -111 812
-109 42 1 -1291 308 -1617 373 -698 138 -1088 163 -1600 102 -115 -13 -264
-30 -330 -36 -156 -15 -226 -26 -365 -60 -63 -16 -198 -41 -300 -55 -303 -43
-447 -73 -545 -112 -52 -21 -125 -42 -175 -49 -47 -6 -98 -15 -115 -18 -16 -3
4 10 45 30 295 144 749 251 1305 309 83 9 249 30 369 46 l220 31 465 -5 c525
-4 500 -2 884 -91 127 -30 428 -96 667 -146 239 -50 503 -109 585 -131 209
-56 570 -126 690 -134 55 -4 142 -15 193 -26 51 -10 141 -23 200 -29 59 -6
168 -26 242 -46 119 -31 154 -37 291 -41 167 -6 406 9 516 32 62 13 131 34
207 64 l30 12 -32 19 c-17 11 -56 53 -87 95 -68 91 -130 140 -257 200 -242
114 -882 296 -1515 429 -337 71 -345 73 -571 96 -337 34 -593 77 -807 134
-237 64 -371 76 -845 77 -201 0 -401 4 -445 9 -44 5 -168 12 -275 15 -173 4
-203 3 -270 -15z"/>
<path d="M2195 2034 c-3 -21 -14 -75 -25 -119 -10 -44 -21 -102 -25 -130 l-6
-50 21 25 c12 14 44 71 72 128 l51 103 -40 41 -41 41 -7 -39z"/>
<path d="M3244 2051 c-44 -27 -103 -99 -116 -144 -9 -30 -9 -49 0 -83 7 -24
12 -55 12 -68 0 -31 49 -83 86 -92 41 -10 138 26 230 86 41 27 84 52 94 55 29
9 25 18 -24 52 -25 18 -72 67 -106 110 -34 43 -69 84 -78 91 -23 17 -62 15
-98 -7z"/>
<path d="M2398 2015 c-59 -46 -78 -71 -78 -102 0 -10 -6 -30 -14 -44 -8 -16
-10 -32 -5 -40 5 -8 16 -37 24 -66 16 -56 57 -96 167 -166 54 -34 76 -67 66
-97 -2 -7 -50 19 -109 58 -75 49 -115 84 -142 121 -49 68 -78 69 -145 7 -134
-126 -120 -246 46 -380 90 -72 106 -76 162 -33 59 45 103 67 133 67 20 0 27 8
37 44 19 68 45 103 97 130 61 30 75 46 108 126 15 36 32 77 37 91 11 24 4 33
-142 177 -84 84 -160 152 -169 152 -9 0 -42 -20 -73 -45z"/>
<path d="M2932 1745 c-62 -64 -112 -149 -112 -193 0 -36 26 -89 54 -107 21
-14 31 -15 60 -5 49 16 129 82 165 137 34 51 38 75 18 92 -8 6 -19 30 -26 53
-33 111 -68 116 -159 23z"/>
<path d="M2660 1458 c-42 -28 -90 -117 -90 -168 0 -45 33 -80 77 -80 36 0 112
55 142 103 31 50 37 107 14 136 -29 35 -98 40 -143 9z"/>
<path d="M1994 1242 c-74 -187 -85 -241 -55 -271 27 -27 80 -27 134 0 39 20
145 122 187 180 l19 25 -112 112 -112 111 -61 -157z"/>
<path d="M2417 1244 c-31 -17 -62 -64 -99 -149 -44 -104 -45 -122 -7 -161 21
-22 42 -34 58 -34 31 1 73 33 66 52 -2 7 31 53 74 101 l79 89 -32 56 c-30 53
-34 57 -71 59 -22 2 -52 -4 -68 -13z"/>
<path d="M6385 1160 c-33 -22 -70 -40 -83 -40 -31 0 -71 -22 -106 -59 l-30
-31 55 0 c30 0 75 -7 101 -14 33 -11 57 -12 80 -5 43 11 101 73 115 122 l11
37 -33 0 c-20 0 -38 6 -42 15 -7 12 -19 7 -68 -25z"/>
<path d="M6713 1152 c-35 -15 -63 -30 -63 -33 0 -8 72 -29 100 -29 13 0 28 6
34 14 6 8 43 28 81 45 l70 30 -80 0 c-65 0 -92 -5 -142 -27z"/>
<path d="M6025 1135 c-16 -8 -43 -14 -60 -15 -16 0 -41 -7 -55 -15 -14 -8 -37
-14 -51 -15 -33 0 -139 -53 -168 -84 l-22 -24 48 -7 c26 -3 63 -15 81 -25 32
-19 32 -19 70 2 20 12 52 34 70 50 35 30 73 44 97 34 17 -6 29 17 40 78 8 41
0 44 -50 21z"/>
<path d="M6867 1097 c-73 -18 -99 -79 -112 -259 -8 -121 -1 -138 58 -138 48 0
56 -4 80 -42 26 -41 61 -37 132 17 33 25 67 45 76 45 27 0 27 9 8 83 -23 90
-24 155 -3 186 16 23 16 25 -7 43 -35 28 -118 65 -159 70 -19 3 -52 1 -73 -5z"/>
<path d="M7650 1061 c-11 -8 -17 -39 -21 -128 -3 -65 -9 -125 -12 -133 -5 -11
12 -24 61 -49 78 -38 94 -37 157 14 56 45 83 58 110 51 19 -5 23 -1 29 25 9
46 7 104 -4 133 -12 32 -50 49 -165 71 -130 26 -138 27 -155 16z"/>
<path d="M5400 1036 c-69 -12 -110 -34 -133 -70 -14 -21 -14 -22 17 -23 18 -1
56 -13 84 -27 71 -36 89 -34 143 20 26 25 57 51 70 58 33 16 34 34 4 46 -33
13 -102 11 -185 -4z"/>
<path d="M6533 1022 c-64 -23 -118 -63 -139 -104 -18 -34 -33 -171 -26 -230 4
-33 8 -39 41 -48 87 -25 108 -24 158 6 26 16 66 36 88 44 45 17 52 34 54 132
0 31 6 80 12 109 11 48 10 53 -13 75 -33 34 -106 40 -175 16z"/>
<path d="M2135 954 c-44 -50 -81 -63 -176 -64 -61 0 -81 -14 -114 -79 l-17
-34 68 7 c85 9 134 32 154 71 l14 31 26 -28 c23 -25 28 -27 70 -17 25 5 62 12
83 16 33 5 37 8 31 27 -19 62 -58 116 -83 116 -9 -1 -34 -21 -56 -46z"/>
<path d="M8035 967 c-19 -27 -19 -58 -1 -102 13 -30 23 -36 81 -54 81 -25 162
-27 193 -5 13 9 44 21 70 27 l47 12 3 55 c1 30 -1 60 -5 66 -5 7 -73 13 -191
16 -177 5 -183 5 -197 -15z"/>
<path d="M5070 973 c-82 -6 -184 -23 -231 -39 -44 -14 -88 -48 -77 -59 5 -6
213 -65 228 -65 5 0 32 19 59 43 27 23 67 57 90 75 64 52 60 55 -69 45z"/>
<path d="M9328 963 c7 -3 16 -2 19 1 4 3 -2 6 -13 5 -11 0 -14 -3 -6 -6z"/>
<path d="M9383 953 c9 -2 23 -2 30 0 6 3 -1 5 -18 5 -16 0 -22 -2 -12 -5z"/>
<path d="M8530 933 c-34 -18 -70 -66 -59 -78 11 -11 149 -45 182 -45 25 0 46
10 78 38 24 22 51 41 59 44 20 7 -113 48 -175 54 -36 4 -60 0 -85 -13z"/>
<path d="M5543 915 c-17 -9 -36 -29 -41 -43 -13 -36 -41 -186 -48 -259 -8 -73
7 -93 68 -93 22 0 68 -8 103 -17 l63 -17 35 27 c19 14 44 46 55 71 25 52 37
178 25 246 -7 39 -14 48 -52 69 -57 31 -162 39 -208 16z"/>
<path d="M4498 883 c-21 -8 -38 -21 -38 -27 0 -15 96 -56 129 -56 33 0 107 45
114 69 4 15 -2 20 -25 25 -54 11 -142 5 -180 -11z"/>
<path d="M4187 865 c-21 -8 -66 -29 -100 -47 l-62 -33 77 -5 c61 -4 82 -9 98
-26 l21 -21 58 56 c46 44 56 60 49 74 -11 21 -85 22 -141 2z"/>
<path d="M5175 854 c-115 -20 -119 -26 -135 -203 -6 -78 -9 -157 -6 -176 l7
-35 31 16 c28 15 34 15 69 -1 56 -26 115 -16 199 34 l70 42 0 138 c0 131 -1
139 -23 159 -25 23 -78 43 -112 41 -11 0 -56 -7 -100 -15z"/>
<path d="M9000 861 c0 -10 40 -22 52 -15 18 11 6 24 -22 24 -16 0 -30 -4 -30
-9z"/>
<path d="M3821 791 c-29 -10 -64 -30 -78 -43 l-25 -25 76 -12 c42 -6 81 -11
85 -11 8 0 31 75 31 99 0 16 -27 13 -89 -8z"/>
<path d="M4692 798 c-26 -34 -42 -82 -52 -159 -17 -139 3 -199 68 -199 63 0
154 -19 172 -35 16 -14 18 -14 24 0 5 14 30 27 90 49 16 5 16 9 5 23 -10 11
-14 48 -14 127 0 96 -2 113 -20 132 -37 39 -83 57 -132 49 -32 -5 -51 -2 -68
9 -29 19 -59 21 -73 4z"/>
<path d="M4343 778 c-39 -10 -60 -39 -79 -110 -17 -65 -18 -197 -2 -250 18
-62 88 -88 185 -68 68 15 106 48 123 109 15 55 3 247 -16 266 -16 16 -104 50
-149 57 -16 3 -45 1 -62 -4z"/>
<path d="M3995 711 c-60 -36 -125 -197 -125 -309 0 -97 38 -132 147 -132 36 0
46 5 65 30 16 22 30 30 53 30 54 0 70 29 68 117 -2 46 3 85 11 101 19 40 -6
122 -37 122 -12 0 -44 14 -72 30 -59 35 -70 36 -110 11z"/>
<path d="M3607 624 c-32 -25 -65 -60 -72 -77 -19 -46 -29 -215 -16 -251 11
-28 14 -28 61 -23 42 5 54 2 92 -23 35 -24 44 -26 46 -14 2 9 27 26 56 39 l52
23 18 166 c10 92 17 168 15 170 -2 1 -32 10 -66 19 -98 27 -120 23 -186 -29z"/>
<path d="M3403 621 c-99 -36 -200 -117 -225 -180 -19 -51 -29 -153 -17 -188
24 -74 153 -86 208 -19 8 9 25 16 40 16 48 0 54 11 52 101 -1 81 12 220 25
267 8 28 -11 29 -83 3z"/>
<path d="M2664 421 c-164 -87 -237 -150 -275 -238 -37 -86 -35 -88 92 -91 131
-3 150 5 182 76 20 45 98 294 94 299 -2 1 -43 -20 -93 -46z"/>
<path d="M2292 287 c-7 -8 -33 -22 -58 -31 -53 -18 -128 -71 -177 -125 -67
-74 -58 -111 26 -111 28 0 65 -5 82 -11 41 -15 77 -6 117 30 27 24 32 36 35
87 2 32 0 86 -4 118 -7 51 -10 57 -21 43z"/>
<path d="M692 215 c3 -4 49 -26 101 -49 51 -24 126 -64 165 -90 74 -50 105
-55 110 -19 3 19 -11 29 -102 73 -58 28 -127 57 -153 65 -63 17 -130 29 -121
20z"/>
</g>
</svg>
